/* XPM */
static char *ddb5b4fad4fc45b0c1246c00449925b9vVsInEoT5aFHgbDP[] = {
/* columns rows colors chars-per-pixel */
"64 64 10 1 ",
"  c #181818",
". c #1F2839",
"X c #403D3D",
"o c #494545",
"O c #585A5B",
"+ c #25D7CF",
"@ c #888C8C",
"# c gray58",
"$ c #A1A9AC",
"% c #D8D8D8",
/* pixels */
"................................................................",
"................................................................",
".........@@@@@@@@@@@@@@@@@@@@@@@OO@@@@@@@@@@@@@@@@@@@@@@@.......",
".........@@@@@@%%%@@@@@%%@@@@@@@OO@@@@@%%@@@@@@@@@@@@@@@@.......",
".........@@@@@%%%%@@@@%%%@@@@@@@OO@@@@%%%@@@@@@@@@@@@@@@@.......",
".........@@@@@%%%%@@@@%%%@@@@@@@OO@@@@%%%@@@@@@@@@@@@@@@@.......",
".........@@@@%%%%@@@@%%%@@@@@@@@OO@@@%%%%@@@@@@@@@@@@@@@@.......",
".........@@@@%%%%@@@@%%%@@@@@@@@OO@@@%%%@@@@@@@@@@@@@@@@@.......",
".........@@@%%%%%@@@%%%@@@@@@@@@OO@@%%%%@@@@@@@@@@@@@@@@@.......",
".........@@@%%%%@@@@%%%@@@@@@@@@OO@@%%%@@@@@@@@@@@@@@@@@@.......",
".........@@@%%%%@@@%%%@@@@@@@@@@OO@@%%%@@@@@@@@@@@@@@@@@@.......",
".........@@%%%%%@@@%%%@@@@@@@@@@OO@%%%@@@@@@@@@@@@@@@@@@@.......",
".........@@%%%%@@@@%%@@@@@@@@@@@OO@%%@@@@@@@@@@@@@@@@@@@@.......",
".........@@%%%%@@@%%%@@@@@@@@@@@OO@@@@@@@@@@@@@@@@@@@@@@@.......",
".........@@%%%@@@@%%@@@@@@@@@@@@OO@@@@@@@@@@@@@@@@@@@@@@@.......",
".........@@%%%@@@@%%@@@@@@@@@@@@OO@@@@@@@@@@@@@@@@@@@@@@@.......",
".........@@%%%@@@@%@@@@@@@@@@@@@OO@@@@@@@@@@@@@@@@@@@@@@@.......",
".........@@%%@@@@@%@@@@@@@@@%%@@OO@@%%@@@@@@@@@@@@@@@@@@@.......",
".........@@@@@@@@@@@@@@@@@@@%%@@OO@@%%@@@@@%@@ ooooooo @@.......",
".........@@@@@@@@@@@@@@@@@@@%$@@OO@@%$@@@@@%@@o       o@@.......",
".........@@@@@@@@@@@@@@@@@@@%$@@OO@@%$@@@@%%@@o#X+++X#o@@.......",
".........@@@@@@@@@@@@@@@@@@@%$@@OO@@%$@@@@%%@@o X+++X o@@.......",
".........@@@@%%@@@@@@@@@@@@@%$@@OO@@%$@@@@%%@@o #XXX# o@@.......",
".........@@@@%%@@@@@@@@@@@@@$$@@OO@@%$@@@%%%@@o ##### o@@.......",
".........@@@@%%@@@@@@@@@@@@@$$@@OO@@%$@@@%%@@@o X#X#X o@@.......",
".........@@@%%%@@@@@@@@@@@@@%$@@OO@@%$@@@%%@@@o ##### o@@.......",
".........@@@%%%@@@@@@@@@@@@@%$@@OO@@%$@@@%%@@@o #X#X# o@@.......",
".........@@@%%%@@@@@@@@@@@@@%$@@OO@@%$@@@%%@@@o       o@@.......",
".........@@@%%%@@@@@@@@@@@@@%$@@OO@@%$@@@%@@@@o       o@@.......",
".........@@@%%@@@@@@@@@@@@@@%$@@OO@@%$@@@@@@@@ ooooooo @@.......",
".........@@@%%@@@@@@@@@@@@@@%$@@OO@@$$@@@@@@@@@@@@@@@@@@@.......",
".........@@@%%@@@@@@@@@@@@@@$$@@OO@@$$@@@@@@@@@@@@@@@@@@@.......",
".........@@@@@@@@@@@@@@@@@@@$$@@OO@@$$@@@@@@@@@@@@@@@@@@@.......",
".........@@@@@@@@@@@@@@@@@@@$$@@OO@@$$@@@@@@@@@@@@@@@@@@@.......",
".........@@@@@@@@@@@@@@@@@@@%$@@OO@@$$@@@@@@@@@@@@@@@@@@@.......",
".........@@@@@@@@@@@@@@@@@@@%$@@OO@@$$@@@@@@@@@@@@@@@@@@@.......",
".........@@@@@@@@@@@@@@@@@@@$$@@OO@@$$@@@@@@@@@@@@@@@@@@@.......",
".........@@@@@@@@@@@@@@@@@@@$$@@OO@@$$@@@@@@@@@@@@@@@@@@@.......",
".........@@@@@@@@@@@@@@@@@@@$$@@OO@@$$@@@@@@@@@@@@@@@@@@@.......",
".........@@@@@@@@@@@@@@@@@@@@@@@OO@@@@@@@@@@@@@@@@@@@@@@@.......",
".........OOOOOOOOOOOOOOOOOOOOOOOOOOOOOOOOOOOOOOOOOOOOOOOO.......",
".........OOOOOOOOOOOOOOOOOOOOOOOOOOOOOOOOOOOOOOOOOOOOOOOO.......",
".........@@@@@@@@@@@@@@@@@@@@@@@@@@@@@@@@@@@@@@@@@@@@@@@@.......",
".........@@@@@@@@@@@@@@@@@@@@@@@@@@@@@@@@@@@@@@@@@@@@@@@@.......",
".........@@@@@@@@@@@@@@@@@@@@@@@@@@@@@@@@@@@@@@@@@@@@@@@@.......",
".........@@@@@%%%%%%%%%%%%%%%%%%%%$$%%%%%%$$$$%%$$$$@@@@@.......",
".........@@@@@%%%%%$$$$$$$$$$$$$$$$$$$$$$$$$$$$$$$$$@@@@@.......",
".........@@@@@@@@@@@@@@@@@@@@@@@@@@@@@@@@@@@@@@@@@@@@@@@@.......",
".........@@@@@@@@@@@@@@@@@@@@@@@@@@@@@@@@@@@@@@@@@@@@@@@@.......",
".........@@@@@@@@@@@@@@@@@@@@@@@@@@@@@@@@@@@@@@@@@@@@@@@@.......",
".........@@@@@@@@@@@@@@@@@@@@@@@@@@@@@@@@@@@@@@@@@@@@@@@@.......",
".........@@@@@@@@@@@@@@@@@@@@@@@@@@@@@@@@@@@@@@@@@@@@@@@@.......",
".........@@@@@@@@@@@@@@@@@@@@@@@@@@@@@@@@@@@@@@@@@@@@@@@@.......",
".........@@@@@@@@@@@@@@@@@@@@@@@@@@@@@@@@@@@@@@@@@@@@@@@@.......",
".........@@@@@@@@@@@@@@@@@@@@@@@@@@@@@@@@@@@@@@@@@@@@@@@@.......",
".........@@@@@@@@@@@@@@@@@@@@@@@@@@@@@@@@@@@@@@@@@@@@@@@@.......",
".........@@@@@@@@@@@@@@@@@@@@@@@@@@@@@@@@@@@@@@@@@@@@@@@@.......",
".........@@@@@@@@@@@@@@@@@@@@@@@@@@@@@@@@@@@@@@@@@@@@@@@@.......",
".........@@@@@@@@@@@@@@@@@@@@@@@@@@@@@@@@@@@@@@@@@@@@@@@@.......",
".........@@@@@@@@@@@@@@@@@@@@@@@@@@@@@@@@@@@@@@@@@@@@@@@@.......",
".........@@@@@@@@@@@@@@@@@@@@@@@@@@@@@@@@@@@@@@@@@@@@@@@@.......",
".........@@@@@@@@@@@@@@@@@@@@@@@@@@@@@@@@@@@@@@@@@@@@@@@@.......",
".........@@@@@@@@@@@@@@@@@@@@@@@@@@@@@@@@@@@@@@@@@@@@@@@@.......",
"..........OOOOOOOOOOOOOOOOOOOOOOOOOOOOOOOOOOOOOOOOOOOOOO........"
};
